<?xml version="1.0" encoding="UTF-8"?>
<svg width="576px" height="512px" viewBox="0 0 576 512" version="1.1" xmlns="http://www.w3.org/2000/svg" xmlns:xlink="http://www.w3.org/1999/xlink">
    <title>retraction-watch-icon-2</title>
    <g id="retraction-watch-icon-2" stroke="none" stroke-width="1" fill="none" fill-rule="evenodd">
        <g id="exclamation-triangle" transform="translate(1.000000, 0.000000)" fill="#EB0000" fill-rule="nonzero">
            <path d="M569.517287,440.013005 C587.975287,472.007005 564.806287,512 527.940287,512 L48.0542867,512 C11.1172867,512 -11.9447133,471.945005 6.47728668,440.013005 L246.423287,23.9850049 C264.890287,-8.02399507 311.143287,-7.96599507 329.577287,23.9850049 L569.517287,440.013005 Z M288.000287,354.000005 C262.595287,354.000005 242.000287,374.595005 242.000287,400.000005 C242.000287,425.405005 262.595287,446.000005 288.000287,446.000005 C313.405287,446.000005 334.000287,425.405005 334.000287,400.000005 C334.000287,374.595005 313.405287,354.000005 288.000287,354.000005 Z M244.327287,188.654005 L251.745287,324.654005 C252.092287,331.018005 257.354287,336.000005 263.727287,336.000005 L312.273287,336.000005 C318.646287,336.000005 323.908287,331.018005 324.255287,324.654005 L331.673287,188.654005 C332.048287,181.780005 326.575287,176.000005 319.691287,176.000005 L256.308287,176.000005 C249.424287,176.000005 243.952287,181.780005 244.327287,188.654005 L244.327287,188.654005 Z" id="Shape"></path>
        </g>
    </g>
</svg>
