<?xml version="1.0" encoding="UTF-8"?>
<svg width="526px" height="434px" viewBox="0 0 526 434" version="1.1" xmlns="http://www.w3.org/2000/svg" xmlns:xlink="http://www.w3.org/1999/xlink">
    <title>browzine-open-book-icon-1</title>
    <g id="Page-1" stroke="none" stroke-width="1" fill="none" fill-rule="evenodd">
        <g id="browzine-open-book-icon-1" fill="#629ADD" transform="translate(7.000000, 7.000000)">
            <path d="M241.618552,55.7857207 C232.151375,26.3203553 207.77015,11.5876726 168.474879,11.5876726 C129.179608,11.5876726 76.8941653,24.1287042 11.6185517,49.2107674 L11.6185517,346.505747 C71.2023037,323.297721 118.863283,311.693708 154.60149,311.693708 C190.590991,322.63818 222.073848,357.764826 241.262978,358.587673 C241.16729,340.930135 241.285815,239.996151 241.618552,55.7857207 Z" id="Path-2"></path>
            <path d="M499.999449,55.7857207 C490.532272,26.3203553 466.151048,11.5876726 426.855777,11.5876726 C387.560506,11.5876726 335.275063,24.1287042 269.999449,49.2107674 L269.999449,346.505747 C329.583202,323.297721 377.244181,311.693708 412.982388,311.693708 C448.971888,322.63818 480.454746,357.764826 499.643876,358.587673 C499.548188,340.930135 499.666712,239.996151 499.999449,55.7857207 Z" id="Path-2" transform="translate(384.999449, 185.087673) scale(-1, 1) translate(-384.999449, -185.087673) "></path>
            <path d="M344.971286,0 C379.260972,0 412.325161,10.6415785 441.494847,20.0313871 C464.528241,27.444771 486.283286,34.4477219 503.741935,34.4477219 C508.30369,34.4477219 512,37.8847153 512,42.1241515 L512,42.1241515 L512,351.32357 C512,355.56403 508.30369,359 503.741935,359 C483.505273,359 460.474082,351.586616 436.09077,343.738234 C408.150985,334.745553 376.482959,324.552278 344.971286,324.552278 C317.949798,324.552278 296.07914,332.869434 279.964903,349.273452 C279.113304,350.14049 278.096775,350.784232 277.000418,351.201089 L276.99961,330.702434 C291.282552,319.592502 313.151786,309.198395 344.971286,309.198395 C379.260972,309.198395 412.325161,319.839974 441.494847,329.229783 C461.022417,335.516267 479.632791,341.504905 495.483871,343.183484 L495.483871,343.183484 L495.483871,49.4198301 C477.326039,47.811874 457.217101,41.3391086 436.09077,34.5388155 C408.150985,25.5461341 376.482959,15.3528592 344.971286,15.3528592 C309.687885,15.3528592 288.737148,30.039209 277.000735,43.3352913 L277.000134,21.5040389 C291.28361,10.3941064 313.152669,0 344.971286,0 Z M167.030916,0 C198.848787,0 220.716859,10.3936191 235.000643,21.5032576 L235.003099,43.1198859 C223.319986,29.87399 202.436991,15.3528592 167.028714,15.3528592 C135.517041,15.3528592 103.849015,25.5461341 75.9092301,34.5388155 C54.784,41.3380851 34.6739613,47.811874 16.516129,49.4198301 L16.516129,49.4198301 L16.516129,343.183484 C32.3672086,341.504905 50.9775828,335.516267 70.5051527,329.228759 C99.6748387,319.83895 132.737927,309.197372 167.028714,309.197372 C198.848685,309.197372 220.717699,319.59294 235.001366,330.703227 L235.000654,351.199798 C233.903438,350.782964 232.88611,350.138967 232.033996,349.271405 C215.919759,332.86841 194.049101,324.551255 167.028714,324.551255 C135.517041,324.551255 103.849015,334.74453 75.9092301,343.737211 C51.5270194,351.585593 28.495828,359 8.25806452,359 C3.69630968,359 0,355.563007 0,351.322547 L0,351.322547 L0,42.1241515 C0,37.8836918 3.69630968,34.4477219 8.25806452,34.4477219 C25.716714,34.4477219 47.4717591,27.444771 70.5073548,20.0313871 C99.6770409,10.6415785 132.740129,0 167.030916,0 Z" id="Combined-Shape" stroke="#629ADD" stroke-width="13.7634409" fill-rule="nonzero"></path>
            <path d="M503.741935,402.716077 C486.283286,402.716077 464.528241,395.18252 441.494847,387.207432 C412.325161,377.106168 379.260972,365.658288 344.971286,365.658288 C307.707596,365.658288 284.091733,380.994065 270.322787,394.942486 L241.676112,394.941385 C227.907166,380.992963 204.290202,365.658288 167.028714,365.658288 C132.737927,365.658288 99.6748387,377.106168 70.5051527,387.207432 C47.4717591,395.18252 25.716714,402.716077 8.25806452,402.716077 C3.69630968,402.716077 0,406.412387 0,410.974142 C0,415.535897 3.69630968,419.232206 8.25806452,419.232206 C28.495828,419.232206 51.5270194,411.257118 75.9092301,402.814073 C103.849015,393.140026 135.517041,382.174417 167.028714,382.174417 C194.049101,382.174417 215.919759,391.121755 232.033996,408.767587 C233.598624,410.48086 235.811785,411.456413 238.131751,411.456413 L273.866047,411.457514 C276.186013,411.457514 278.399174,410.48086 279.963802,408.768688 C296.078039,391.121755 317.948697,382.174417 344.970185,382.174417 C376.481858,382.174417 408.149884,393.140026 436.089669,402.814073 C460.472981,411.257118 483.504172,419.232206 503.740834,419.232206 C508.302589,419.232206 511.998899,415.535897 511.998899,410.974142 C511.998899,406.412387 508.30369,402.716077 503.741935,402.716077 Z" id="Path" stroke="#629ADD" stroke-width="13.7634409" fill-rule="nonzero"></path>
        </g>
    </g>
</svg>